<svg xmlns="http://www.w3.org/2000/svg" viewBox="95 735 1350 525" fill="currentColor">
<path d="M1331.77 853.609L1200.23 1018.44L1339.16 1238.7V1242.39H1144.81V1237.96L1179.54 1207.65L1101.21 1081.26C1076.83 1118.22 1065.01 1202.48 1128.56 1236.48V1242.39H956.381V1237.96L1096.04 1072.39L960.076 853.609V849.174H1150.72V853.609L1115.99 883.913L1195.06 1009.57C1213.54 972.609 1226.1 886.87 1167.72 854.348V849.174H1331.77V853.609Z"></path>
<path d="M953.344 1158.13L1008.03 1130.04L1010.98 1133.74C965.906 1197.3 934.87 1251.26 889.055 1251.26C854.325 1251.26 826.984 1229.83 832.895 1147.78H829.2C804.815 1202.48 769.346 1252 703.579 1252C653.33 1252 618.6 1222.44 618.6 1172.91C618.6 1103.44 685.105 1065.74 747.177 1036.91L828.461 1001.44C829.2 926.044 805.554 878.74 770.084 880.957C739.788 883.914 723.531 914.957 750.133 1000.7L613.427 1039.13L611.21 1035.44C698.406 846.218 838.807 838.088 850.63 838.088C968.123 838.088 966.645 914.957 959.995 1016.22L953.344 1147.04V1158.13ZM775.996 1162.57C790.775 1162.57 812.205 1151.48 826.984 1122.65L828.461 1017.7C767.129 1059.83 743.482 1090.13 743.482 1121.91C743.482 1152.22 762.695 1162.57 775.996 1162.57Z"></path>
<path d="M620.938 743.478V747.913L592.858 786.348L593.597 1242.39H409.598V1237.96L449.502 1199.52L448.763 850.652H444.329L320.925 1154.43H312.796L167.223 857.304H163.528V906.826C163.528 1065.74 211.56 1164.04 303.19 1238.7V1242.39H147.271V821.826L105.89 747.913V743.478L265.503 742L372.651 968.174H376.346L466.498 743.478H620.938Z"></path>
<rect x="1361.68" y="1172.9" width="73.2076" height="73.2255" rx="7.07152"></rect>
</svg>